<mxfile host="app.diagrams.net" modified="2020-10-18T21:28:32.748Z" agent="5.0 (Windows)" etag="MmCI4Ubcspha0GOMng4S" version="13.8.0" type="github">
  <diagram id="UYrl-liUOymnCoBVZTiA" name="Page-1">
    <mxGraphModel dx="1021" dy="1151" grid="1" gridSize="10" guides="1" tooltips="1" connect="1" arrows="1" fold="1" page="1" pageScale="1" pageWidth="827" pageHeight="1169" math="0" shadow="0">
      <root>
        <mxCell id="0" />
        <mxCell id="1" parent="0" />
        <mxCell id="Xmk3GtjUzhEhXICLf84B-22" style="edgeStyle=orthogonalEdgeStyle;rounded=0;orthogonalLoop=1;jettySize=auto;html=1;exitX=0.5;exitY=1;exitDx=0;exitDy=0;entryX=0.5;entryY=0;entryDx=0;entryDy=0;" edge="1" parent="1" source="Xmk3GtjUzhEhXICLf84B-1" target="Xmk3GtjUzhEhXICLf84B-2">
          <mxGeometry relative="1" as="geometry" />
        </mxCell>
        <mxCell id="Xmk3GtjUzhEhXICLf84B-23" style="edgeStyle=orthogonalEdgeStyle;rounded=0;orthogonalLoop=1;jettySize=auto;html=1;exitX=0.5;exitY=1;exitDx=0;exitDy=0;entryX=0.5;entryY=0;entryDx=0;entryDy=0;" edge="1" parent="1" source="Xmk3GtjUzhEhXICLf84B-1" target="Xmk3GtjUzhEhXICLf84B-3">
          <mxGeometry relative="1" as="geometry" />
        </mxCell>
        <mxCell id="Xmk3GtjUzhEhXICLf84B-1" value="FSM" style="ellipse;whiteSpace=wrap;html=1;aspect=fixed;fontStyle=1" vertex="1" parent="1">
          <mxGeometry x="250" y="70" width="80" height="80" as="geometry" />
        </mxCell>
        <mxCell id="Xmk3GtjUzhEhXICLf84B-14" style="edgeStyle=orthogonalEdgeStyle;rounded=0;orthogonalLoop=1;jettySize=auto;html=1;exitX=0.5;exitY=1;exitDx=0;exitDy=0;entryX=0.5;entryY=0;entryDx=0;entryDy=0;" edge="1" parent="1" source="Xmk3GtjUzhEhXICLf84B-2" target="Xmk3GtjUzhEhXICLf84B-4">
          <mxGeometry relative="1" as="geometry" />
        </mxCell>
        <mxCell id="Xmk3GtjUzhEhXICLf84B-2" value="event_&lt;br&gt;declerations" style="ellipse;whiteSpace=wrap;html=1;aspect=fixed;fontStyle=1" vertex="1" parent="1">
          <mxGeometry x="140" y="210" width="80" height="80" as="geometry" />
        </mxCell>
        <mxCell id="Xmk3GtjUzhEhXICLf84B-26" style="edgeStyle=orthogonalEdgeStyle;rounded=0;orthogonalLoop=1;jettySize=auto;html=1;exitX=0.5;exitY=1;exitDx=0;exitDy=0;entryX=0.5;entryY=0;entryDx=0;entryDy=0;" edge="1" parent="1" source="Xmk3GtjUzhEhXICLf84B-3" target="Xmk3GtjUzhEhXICLf84B-24">
          <mxGeometry relative="1" as="geometry" />
        </mxCell>
        <mxCell id="Xmk3GtjUzhEhXICLf84B-27" style="edgeStyle=orthogonalEdgeStyle;rounded=0;orthogonalLoop=1;jettySize=auto;html=1;exitX=0.5;exitY=1;exitDx=0;exitDy=0;" edge="1" parent="1" source="Xmk3GtjUzhEhXICLf84B-3" target="Xmk3GtjUzhEhXICLf84B-25">
          <mxGeometry relative="1" as="geometry" />
        </mxCell>
        <mxCell id="Xmk3GtjUzhEhXICLf84B-3" value="state_&lt;br&gt;transitions" style="ellipse;whiteSpace=wrap;html=1;aspect=fixed;fontStyle=1" vertex="1" parent="1">
          <mxGeometry x="374" y="210" width="80" height="80" as="geometry" />
        </mxCell>
        <mxCell id="Xmk3GtjUzhEhXICLf84B-15" value="" style="edgeStyle=orthogonalEdgeStyle;rounded=0;orthogonalLoop=1;jettySize=auto;html=1;" edge="1" parent="1" source="Xmk3GtjUzhEhXICLf84B-4" target="Xmk3GtjUzhEhXICLf84B-8">
          <mxGeometry relative="1" as="geometry" />
        </mxCell>
        <mxCell id="Xmk3GtjUzhEhXICLf84B-4" value="id_list" style="ellipse;whiteSpace=wrap;html=1;aspect=fixed;fontStyle=1" vertex="1" parent="1">
          <mxGeometry x="110" y="360" width="80" height="80" as="geometry" />
        </mxCell>
        <mxCell id="Xmk3GtjUzhEhXICLf84B-18" style="edgeStyle=orthogonalEdgeStyle;rounded=0;orthogonalLoop=1;jettySize=auto;html=1;exitX=0.5;exitY=1;exitDx=0;exitDy=0;entryX=0.5;entryY=0;entryDx=0;entryDy=0;" edge="1" parent="1" source="Xmk3GtjUzhEhXICLf84B-8" target="Xmk3GtjUzhEhXICLf84B-10">
          <mxGeometry relative="1" as="geometry" />
        </mxCell>
        <mxCell id="Xmk3GtjUzhEhXICLf84B-8" value="id_list2" style="ellipse;whiteSpace=wrap;html=1;aspect=fixed;fontStyle=1" vertex="1" parent="1">
          <mxGeometry x="110" y="470" width="80" height="80" as="geometry" />
        </mxCell>
        <mxCell id="Xmk3GtjUzhEhXICLf84B-19" style="edgeStyle=orthogonalEdgeStyle;rounded=0;orthogonalLoop=1;jettySize=auto;html=1;exitX=0.5;exitY=1;exitDx=0;exitDy=0;entryX=0.5;entryY=0;entryDx=0;entryDy=0;" edge="1" parent="1" source="Xmk3GtjUzhEhXICLf84B-10" target="Xmk3GtjUzhEhXICLf84B-12">
          <mxGeometry relative="1" as="geometry" />
        </mxCell>
        <mxCell id="Xmk3GtjUzhEhXICLf84B-10" value="id_list" style="ellipse;whiteSpace=wrap;html=1;aspect=fixed;fontStyle=1" vertex="1" parent="1">
          <mxGeometry x="110" y="570" width="80" height="80" as="geometry" />
        </mxCell>
        <mxCell id="Xmk3GtjUzhEhXICLf84B-21" style="edgeStyle=orthogonalEdgeStyle;rounded=0;orthogonalLoop=1;jettySize=auto;html=1;exitX=0.5;exitY=1;exitDx=0;exitDy=0;entryX=0.5;entryY=0;entryDx=0;entryDy=0;" edge="1" parent="1" source="Xmk3GtjUzhEhXICLf84B-11" target="Xmk3GtjUzhEhXICLf84B-13">
          <mxGeometry relative="1" as="geometry" />
        </mxCell>
        <mxCell id="Xmk3GtjUzhEhXICLf84B-11" value="id_list" style="ellipse;whiteSpace=wrap;html=1;aspect=fixed;fontStyle=1" vertex="1" parent="1">
          <mxGeometry x="110" y="770" width="80" height="80" as="geometry" />
        </mxCell>
        <mxCell id="Xmk3GtjUzhEhXICLf84B-20" style="edgeStyle=orthogonalEdgeStyle;rounded=0;orthogonalLoop=1;jettySize=auto;html=1;exitX=0.5;exitY=1;exitDx=0;exitDy=0;entryX=0.5;entryY=0;entryDx=0;entryDy=0;" edge="1" parent="1" source="Xmk3GtjUzhEhXICLf84B-12" target="Xmk3GtjUzhEhXICLf84B-11">
          <mxGeometry relative="1" as="geometry" />
        </mxCell>
        <mxCell id="Xmk3GtjUzhEhXICLf84B-12" value="id_list2" style="ellipse;whiteSpace=wrap;html=1;aspect=fixed;fontStyle=1" vertex="1" parent="1">
          <mxGeometry x="110" y="670" width="80" height="80" as="geometry" />
        </mxCell>
        <mxCell id="Xmk3GtjUzhEhXICLf84B-13" value="id_list2" style="ellipse;whiteSpace=wrap;html=1;aspect=fixed;fontStyle=1" vertex="1" parent="1">
          <mxGeometry x="110" y="870" width="80" height="80" as="geometry" />
        </mxCell>
        <mxCell id="Xmk3GtjUzhEhXICLf84B-29" style="edgeStyle=orthogonalEdgeStyle;rounded=0;orthogonalLoop=1;jettySize=auto;html=1;exitX=0.5;exitY=1;exitDx=0;exitDy=0;" edge="1" parent="1" source="Xmk3GtjUzhEhXICLf84B-24" target="Xmk3GtjUzhEhXICLf84B-28">
          <mxGeometry relative="1" as="geometry" />
        </mxCell>
        <mxCell id="Xmk3GtjUzhEhXICLf84B-31" style="edgeStyle=orthogonalEdgeStyle;rounded=0;orthogonalLoop=1;jettySize=auto;html=1;exitX=0.5;exitY=1;exitDx=0;exitDy=0;entryX=0.5;entryY=0;entryDx=0;entryDy=0;" edge="1" parent="1" source="Xmk3GtjUzhEhXICLf84B-24" target="Xmk3GtjUzhEhXICLf84B-30">
          <mxGeometry relative="1" as="geometry" />
        </mxCell>
        <mxCell id="Xmk3GtjUzhEhXICLf84B-24" value="state&lt;br&gt;transition" style="ellipse;whiteSpace=wrap;html=1;aspect=fixed;fontStyle=1" vertex="1" parent="1">
          <mxGeometry x="320" y="330" width="80" height="80" as="geometry" />
        </mxCell>
        <mxCell id="Xmk3GtjUzhEhXICLf84B-25" value="state_&lt;br&gt;transitions2" style="ellipse;whiteSpace=wrap;html=1;aspect=fixed;fontStyle=1" vertex="1" parent="1">
          <mxGeometry x="570" y="330" width="80" height="80" as="geometry" />
        </mxCell>
        <mxCell id="Xmk3GtjUzhEhXICLf84B-28" value="opt_initial" style="ellipse;whiteSpace=wrap;html=1;aspect=fixed;fontStyle=1" vertex="1" parent="1">
          <mxGeometry x="260" y="450" width="80" height="80" as="geometry" />
        </mxCell>
        <mxCell id="Xmk3GtjUzhEhXICLf84B-33" style="edgeStyle=orthogonalEdgeStyle;rounded=0;orthogonalLoop=1;jettySize=auto;html=1;exitX=0.5;exitY=1;exitDx=0;exitDy=0;entryX=0.5;entryY=0;entryDx=0;entryDy=0;" edge="1" parent="1" source="Xmk3GtjUzhEhXICLf84B-30" target="Xmk3GtjUzhEhXICLf84B-32">
          <mxGeometry relative="1" as="geometry" />
        </mxCell>
        <mxCell id="Xmk3GtjUzhEhXICLf84B-30" value="transitions" style="ellipse;whiteSpace=wrap;html=1;aspect=fixed;fontStyle=1" vertex="1" parent="1">
          <mxGeometry x="360" y="450" width="80" height="80" as="geometry" />
        </mxCell>
        <mxCell id="Xmk3GtjUzhEhXICLf84B-35" style="edgeStyle=orthogonalEdgeStyle;rounded=0;orthogonalLoop=1;jettySize=auto;html=1;exitX=0.5;exitY=1;exitDx=0;exitDy=0;entryX=0.5;entryY=0;entryDx=0;entryDy=0;" edge="1" parent="1" source="Xmk3GtjUzhEhXICLf84B-32" target="Xmk3GtjUzhEhXICLf84B-34">
          <mxGeometry relative="1" as="geometry" />
        </mxCell>
        <mxCell id="Xmk3GtjUzhEhXICLf84B-32" value="transition" style="ellipse;whiteSpace=wrap;html=1;aspect=fixed;fontStyle=1" vertex="1" parent="1">
          <mxGeometry x="360" y="570" width="80" height="80" as="geometry" />
        </mxCell>
        <mxCell id="Xmk3GtjUzhEhXICLf84B-43" style="edgeStyle=orthogonalEdgeStyle;rounded=0;orthogonalLoop=1;jettySize=auto;html=1;exitX=0.5;exitY=1;exitDx=0;exitDy=0;entryX=0.5;entryY=0;entryDx=0;entryDy=0;" edge="1" parent="1" source="Xmk3GtjUzhEhXICLf84B-34" target="Xmk3GtjUzhEhXICLf84B-37">
          <mxGeometry relative="1" as="geometry" />
        </mxCell>
        <mxCell id="Xmk3GtjUzhEhXICLf84B-34" value="opt_id_list" style="ellipse;whiteSpace=wrap;html=1;aspect=fixed;fontStyle=1" vertex="1" parent="1">
          <mxGeometry x="360" y="680" width="80" height="80" as="geometry" />
        </mxCell>
        <mxCell id="Xmk3GtjUzhEhXICLf84B-36" style="edgeStyle=orthogonalEdgeStyle;rounded=0;orthogonalLoop=1;jettySize=auto;html=1;exitX=0.5;exitY=1;exitDx=0;exitDy=0;entryX=0.5;entryY=0;entryDx=0;entryDy=0;" edge="1" source="Xmk3GtjUzhEhXICLf84B-37" target="Xmk3GtjUzhEhXICLf84B-41" parent="1">
          <mxGeometry relative="1" as="geometry" />
        </mxCell>
        <mxCell id="Xmk3GtjUzhEhXICLf84B-37" value="id_list" style="ellipse;whiteSpace=wrap;html=1;aspect=fixed;fontStyle=1" vertex="1" parent="1">
          <mxGeometry x="360" y="789" width="80" height="80" as="geometry" />
        </mxCell>
        <mxCell id="Xmk3GtjUzhEhXICLf84B-38" style="edgeStyle=orthogonalEdgeStyle;rounded=0;orthogonalLoop=1;jettySize=auto;html=1;exitX=0.5;exitY=1;exitDx=0;exitDy=0;entryX=0.5;entryY=0;entryDx=0;entryDy=0;" edge="1" source="Xmk3GtjUzhEhXICLf84B-39" target="Xmk3GtjUzhEhXICLf84B-42" parent="1">
          <mxGeometry relative="1" as="geometry" />
        </mxCell>
        <mxCell id="Xmk3GtjUzhEhXICLf84B-39" value="id_list" style="ellipse;whiteSpace=wrap;html=1;aspect=fixed;fontStyle=1" vertex="1" parent="1">
          <mxGeometry x="360" y="989" width="80" height="80" as="geometry" />
        </mxCell>
        <mxCell id="Xmk3GtjUzhEhXICLf84B-40" style="edgeStyle=orthogonalEdgeStyle;rounded=0;orthogonalLoop=1;jettySize=auto;html=1;exitX=0.5;exitY=1;exitDx=0;exitDy=0;entryX=0.5;entryY=0;entryDx=0;entryDy=0;" edge="1" source="Xmk3GtjUzhEhXICLf84B-41" target="Xmk3GtjUzhEhXICLf84B-39" parent="1">
          <mxGeometry relative="1" as="geometry" />
        </mxCell>
        <mxCell id="Xmk3GtjUzhEhXICLf84B-41" value="id_list2" style="ellipse;whiteSpace=wrap;html=1;aspect=fixed;fontStyle=1" vertex="1" parent="1">
          <mxGeometry x="360" y="889" width="80" height="80" as="geometry" />
        </mxCell>
        <mxCell id="Xmk3GtjUzhEhXICLf84B-42" value="id_list2" style="ellipse;whiteSpace=wrap;html=1;aspect=fixed;fontStyle=1" vertex="1" parent="1">
          <mxGeometry x="360" y="1089" width="80" height="80" as="geometry" />
        </mxCell>
      </root>
    </mxGraphModel>
  </diagram>
</mxfile>
